<svg width="31" height="30" viewBox="0 0 31 30" fill="none" xmlns="http://www.w3.org/2000/svg">
<g clip-path="url(#clip0_306_2591)">
<path d="M0.5 2.8125C0.5 2.56386 0.598772 2.3254 0.774587 2.14959C0.950403 1.97377 1.18886 1.875 1.4375 1.875H4.25C4.45912 1.87506 4.66222 1.94503 4.827 2.0738C4.99177 2.20256 5.10877 2.38272 5.15938 2.58562L5.91875 5.625H27.6875C27.8252 5.62513 27.9611 5.65557 28.0857 5.71416C28.2102 5.77275 28.3204 5.85805 28.4082 5.96401C28.4961 6.06996 28.5596 6.19397 28.5941 6.32722C28.6287 6.46047 28.6335 6.59969 28.6081 6.735L25.7956 21.735C25.7554 21.9498 25.6414 22.1439 25.4733 22.2835C25.3052 22.4232 25.0936 22.4998 24.875 22.5H8C7.78144 22.4998 7.56981 22.4232 7.40171 22.2835C7.23361 22.1439 7.11959 21.9498 7.07938 21.735L4.26875 6.76313L3.51875 3.75H1.4375C1.18886 3.75 0.950403 3.65123 0.774587 3.47541C0.598772 3.2996 0.5 3.06114 0.5 2.8125ZM9.875 22.5C8.88044 22.5 7.92661 22.8951 7.22335 23.5984C6.52009 24.3016 6.125 25.2554 6.125 26.25C6.125 27.2446 6.52009 28.1984 7.22335 28.9016C7.92661 29.6049 8.88044 30 9.875 30C10.8696 30 11.8234 29.6049 12.5267 28.9016C13.2299 28.1984 13.625 27.2446 13.625 26.25C13.625 25.2554 13.2299 24.3016 12.5267 23.5984C11.8234 22.8951 10.8696 22.5 9.875 22.5ZM23 22.5C22.0054 22.5 21.0516 22.8951 20.3484 23.5984C19.6451 24.3016 19.25 25.2554 19.25 26.25C19.25 27.2446 19.6451 28.1984 20.3484 28.9016C21.0516 29.6049 22.0054 30 23 30C23.9946 30 24.9484 29.6049 25.6517 28.9016C26.3549 28.1984 26.75 27.2446 26.75 26.25C26.75 25.2554 26.3549 24.3016 25.6517 23.5984C24.9484 22.8951 23.9946 22.5 23 22.5ZM9.875 24.375C10.3723 24.375 10.8492 24.5725 11.2008 24.9242C11.5525 25.2758 11.75 25.7527 11.75 26.25C11.75 26.7473 11.5525 27.2242 11.2008 27.5758C10.8492 27.9275 10.3723 28.125 9.875 28.125C9.37772 28.125 8.90081 27.9275 8.54918 27.5758C8.19755 27.2242 8 26.7473 8 26.25C8 25.7527 8.19755 25.2758 8.54918 24.9242C8.90081 24.5725 9.37772 24.375 9.875 24.375ZM23 24.375C23.4973 24.375 23.9742 24.5725 24.3258 24.9242C24.6775 25.2758 24.875 25.7527 24.875 26.25C24.875 26.7473 24.6775 27.2242 24.3258 27.5758C23.9742 27.9275 23.4973 28.125 23 28.125C22.5027 28.125 22.0258 27.9275 21.6742 27.5758C21.3225 27.2242 21.125 26.7473 21.125 26.25C21.125 25.7527 21.3225 25.2758 21.6742 24.9242C22.0258 24.5725 22.5027 24.375 23 24.375Z" fill="white"/>
</g>
<defs>
<clipPath id="clip0_306_2591">
<rect width="30" height="30" fill="white" transform="translate(0.5)"/>
</clipPath>
</defs>
</svg>
