<svg width="26" height="25" viewBox="0 0 26 25" fill="none" xmlns="http://www.w3.org/2000/svg">
<g clip-path="url(#clip0_306_185)">
<path d="M1.65291 2.12305C1.45087 2.12305 1.2571 2.20331 1.11424 2.34617C0.971374 2.48904 0.891113 2.6828 0.891113 2.88485C0.891113 3.08689 0.971374 3.28065 1.11424 3.42352C1.2571 3.56638 1.45087 3.64665 1.65291 3.64665H3.34411L3.95507 6.09507L6.23742 18.261C6.2701 18.4356 6.36275 18.5932 6.49934 18.7067C6.63594 18.8203 6.80791 18.8825 6.98551 18.8826H8.50911C7.70094 18.8826 6.92587 19.2037 6.35441 19.7751C5.78295 20.3466 5.46191 21.1217 5.46191 21.9298C5.46191 22.738 5.78295 23.5131 6.35441 24.0845C6.92587 24.656 7.70094 24.977 8.50911 24.977C9.31727 24.977 10.0923 24.656 10.6638 24.0845C11.2353 23.5131 11.5563 22.738 11.5563 21.9298C11.5563 21.1217 11.2353 20.3466 10.6638 19.7751C10.0923 19.2037 9.31727 18.8826 8.50911 18.8826H19.1743C18.3661 18.8826 17.5911 19.2037 17.0196 19.7751C16.4481 20.3466 16.1271 21.1217 16.1271 21.9298C16.1271 22.738 16.4481 23.5131 17.0196 24.0845C17.5911 24.656 18.3661 24.977 19.1743 24.977C19.9825 24.977 20.7575 24.656 21.329 24.0845C21.9005 23.5131 22.2215 22.738 22.2215 21.9298C22.2215 21.1217 21.9005 20.3466 21.329 19.7751C20.7575 19.2037 19.9825 18.8826 19.1743 18.8826H20.6979C20.8755 18.8825 21.0475 18.8203 21.1841 18.7067C21.3207 18.5932 21.4133 18.4356 21.446 18.261L23.7314 6.07221C23.752 5.96227 23.7481 5.84914 23.72 5.74086C23.6919 5.63258 23.6404 5.53181 23.569 5.44572C23.4975 5.35962 23.4081 5.2903 23.3068 5.24269C23.2056 5.19508 23.0952 5.17035 22.9833 5.17024H5.29431L4.67726 2.70049C4.63613 2.53561 4.54107 2.38922 4.40717 2.28459C4.27327 2.17995 4.10824 2.12309 3.93831 2.12305H1.65291ZM10.0327 21.9298C10.0327 22.3339 9.87218 22.7214 9.58645 23.0072C9.30072 23.2929 8.91319 23.4534 8.50911 23.4534C8.10502 23.4534 7.71749 23.2929 7.43176 23.0072C7.14603 22.7214 6.98551 22.3339 6.98551 21.9298C6.98551 21.5257 7.14603 21.1382 7.43176 20.8525C7.71749 20.5668 8.10502 20.4062 8.50911 20.4062C8.91319 20.4062 9.30072 20.5668 9.58645 20.8525C9.87218 21.1382 10.0327 21.5257 10.0327 21.9298ZM20.6979 21.9298C20.6979 22.3339 20.5374 22.7214 20.2516 23.0072C19.9659 23.2929 19.5784 23.4534 19.1743 23.4534C18.7702 23.4534 18.3827 23.2929 18.097 23.0072C17.8112 22.7214 17.6507 22.3339 17.6507 21.9298C17.6507 21.5257 17.8112 21.1382 18.097 20.8525C18.3827 20.5668 18.7702 20.4062 19.1743 20.4062C19.5784 20.4062 19.9659 20.5668 20.2516 20.8525C20.5374 21.1382 20.6979 21.5257 20.6979 21.9298ZM10.7945 11.2646H16.8889C17.0909 11.2646 17.2847 11.3449 17.4276 11.4878C17.5704 11.6306 17.6507 11.8244 17.6507 12.0264C17.6507 12.2285 17.5704 12.4222 17.4276 12.5651C17.2847 12.708 17.0909 12.7882 16.8889 12.7882H10.7945C10.5925 12.7882 10.3987 12.708 10.2558 12.5651C10.113 12.4222 10.0327 12.2285 10.0327 12.0264C10.0327 11.8244 10.113 11.6306 10.2558 11.4878C10.3987 11.3449 10.5925 11.2646 10.7945 11.2646Z" fill="#ACB5BD"/>
</g>
<defs>
<clipPath id="clip0_306_185">
<rect width="24.3776" height="24.3776" fill="white" transform="translate(0.891113 0.599609)"/>
</clipPath>
</defs>
</svg>
