<svg width="26" height="25" viewBox="0 0 26 25" fill="none" xmlns="http://www.w3.org/2000/svg">
<g clip-path="url(#clip0_306_461)">
<path d="M1.47933 2.12305C1.27729 2.12305 1.08352 2.20331 0.940655 2.34617C0.79779 2.48904 0.717529 2.6828 0.717529 2.88485C0.717529 3.08689 0.79779 3.28065 0.940655 3.42352C1.08352 3.56638 1.27729 3.64665 1.47933 3.64665H3.17052L3.78149 6.09507L6.06384 18.261C6.09652 18.4356 6.18916 18.5932 6.32576 18.7067C6.46236 18.8203 6.63432 18.8825 6.81192 18.8826H8.33552C7.52736 18.8826 6.75229 19.2037 6.18083 19.7751C5.60937 20.3466 5.28833 21.1217 5.28833 21.9298C5.28833 22.738 5.60937 23.5131 6.18083 24.0845C6.75229 24.656 7.52736 24.977 8.33552 24.977C9.14369 24.977 9.91876 24.656 10.4902 24.0845C11.0617 23.5131 11.3827 22.738 11.3827 21.9298C11.3827 21.1217 11.0617 20.3466 10.4902 19.7751C9.91876 19.2037 9.14369 18.8826 8.33552 18.8826H19.0007C18.1925 18.8826 17.4175 19.2037 16.846 19.7751C16.2746 20.3466 15.9535 21.1217 15.9535 21.9298C15.9535 22.738 16.2746 23.5131 16.846 24.0845C17.4175 24.656 18.1925 24.977 19.0007 24.977C19.8089 24.977 20.5839 24.656 21.1554 24.0845C21.7269 23.5131 22.0479 22.738 22.0479 21.9298C22.0479 21.1217 21.7269 20.3466 21.1554 19.7751C20.5839 19.2037 19.8089 18.8826 19.0007 18.8826H20.5243C20.7019 18.8825 20.8739 18.8203 21.0105 18.7067C21.1471 18.5932 21.2397 18.4356 21.2724 18.261L23.5578 6.07221C23.5784 5.96227 23.5745 5.84914 23.5464 5.74086C23.5184 5.63258 23.4668 5.53181 23.3954 5.44572C23.324 5.35962 23.2345 5.2903 23.1333 5.24269C23.032 5.19508 22.9216 5.17035 22.8097 5.17024H5.12073L4.50367 2.70049C4.46255 2.53561 4.36748 2.38922 4.23359 2.28459C4.09969 2.17995 3.93466 2.12309 3.76473 2.12305H1.47933ZM9.85912 21.9298C9.85912 22.3339 9.6986 22.7214 9.41287 23.0072C9.12714 23.2929 8.73961 23.4534 8.33552 23.4534C7.93144 23.4534 7.54391 23.2929 7.25818 23.0072C6.97245 22.7214 6.81192 22.3339 6.81192 21.9298C6.81192 21.5257 6.97245 21.1382 7.25818 20.8525C7.54391 20.5668 7.93144 20.4062 8.33552 20.4062C8.73961 20.4062 9.12714 20.5668 9.41287 20.8525C9.6986 21.1382 9.85912 21.5257 9.85912 21.9298ZM20.5243 21.9298C20.5243 22.3339 20.3638 22.7214 20.0781 23.0072C19.7923 23.2929 19.4048 23.4534 19.0007 23.4534C18.5966 23.4534 18.2091 23.2929 17.9234 23.0072C17.6376 22.7214 17.4771 22.3339 17.4771 21.9298C17.4771 21.5257 17.6376 21.1382 17.9234 20.8525C18.2091 20.5668 18.5966 20.4062 19.0007 20.4062C19.4048 20.4062 19.7923 20.5668 20.0781 20.8525C20.3638 21.1382 20.5243 21.5257 20.5243 21.9298ZM10.6209 11.2646H16.7153C16.9174 11.2646 17.1111 11.3449 17.254 11.4878C17.3969 11.6306 17.4771 11.8244 17.4771 12.0264C17.4771 12.2285 17.3969 12.4222 17.254 12.5651C17.1111 12.708 16.9174 12.7882 16.7153 12.7882H10.6209C10.4189 12.7882 10.2251 12.708 10.0822 12.5651C9.93938 12.4222 9.85912 12.2285 9.85912 12.0264C9.85912 11.8244 9.93938 11.6306 10.0822 11.4878C10.2251 11.3449 10.4189 11.2646 10.6209 11.2646Z" fill="#ACB5BD"/>
</g>
<defs>
<clipPath id="clip0_306_461">
<rect width="24.3776" height="24.3776" fill="white" transform="translate(0.717529 0.599609)"/>
</clipPath>
</defs>
</svg>
