<svg width="25" height="25" viewBox="0 0 25 25" fill="none" xmlns="http://www.w3.org/2000/svg">
<g clip-path="url(#clip0_306_210)">
<path d="M1.1324 2.12305C0.930363 2.12305 0.736596 2.20331 0.593731 2.34617C0.450866 2.48904 0.370605 2.6828 0.370605 2.88485C0.370605 3.08689 0.450866 3.28065 0.593731 3.42352C0.736596 3.56638 0.930363 3.64665 1.1324 3.64665H2.8236L3.43456 6.09507L5.71691 18.261C5.74959 18.4356 5.84224 18.5932 5.97884 18.7067C6.11543 18.8203 6.2874 18.8825 6.465 18.8826H7.9886C7.18043 18.8826 6.40537 19.2037 5.83391 19.7751C5.26244 20.3466 4.9414 21.1217 4.9414 21.9298C4.9414 22.738 5.26244 23.5131 5.83391 24.0845C6.40537 24.656 7.18043 24.977 7.9886 24.977C8.79677 24.977 9.57183 24.656 10.1433 24.0845C10.7148 23.5131 11.0358 22.738 11.0358 21.9298C11.0358 21.1217 10.7148 20.3466 10.1433 19.7751C9.57183 19.2037 8.79677 18.8826 7.9886 18.8826H18.6538C17.8456 18.8826 17.0706 19.2037 16.4991 19.7751C15.9276 20.3466 15.6066 21.1217 15.6066 21.9298C15.6066 22.738 15.9276 23.5131 16.4991 24.0845C17.0706 24.656 17.8456 24.977 18.6538 24.977C19.462 24.977 20.237 24.656 20.8085 24.0845C21.3799 23.5131 21.701 22.738 21.701 21.9298C21.701 21.1217 21.3799 20.3466 20.8085 19.7751C20.237 19.2037 19.462 18.8826 18.6538 18.8826H20.1774C20.355 18.8825 20.527 18.8203 20.6636 18.7067C20.8002 18.5932 20.8928 18.4356 20.9255 18.261L23.2109 6.07221C23.2315 5.96227 23.2276 5.84914 23.1995 5.74086C23.1714 5.63258 23.1199 5.53181 23.0484 5.44572C22.977 5.35962 22.8875 5.2903 22.7863 5.24269C22.6851 5.19508 22.5746 5.17035 22.4628 5.17024H4.77381L4.15675 2.70049C4.11563 2.53561 4.02056 2.38922 3.88666 2.28459C3.75277 2.17995 3.58773 2.12309 3.4178 2.12305H1.1324ZM9.5122 21.9298C9.5122 22.3339 9.35168 22.7214 9.06595 23.0072C8.78022 23.2929 8.39268 23.4534 7.9886 23.4534C7.58452 23.4534 7.19698 23.2929 6.91125 23.0072C6.62552 22.7214 6.465 22.3339 6.465 21.9298C6.465 21.5257 6.62552 21.1382 6.91125 20.8525C7.19698 20.5668 7.58452 20.4062 7.9886 20.4062C8.39268 20.4062 8.78022 20.5668 9.06595 20.8525C9.35168 21.1382 9.5122 21.5257 9.5122 21.9298ZM20.1774 21.9298C20.1774 22.3339 20.0169 22.7214 19.7311 23.0072C19.4454 23.2929 19.0579 23.4534 18.6538 23.4534C18.2497 23.4534 17.8622 23.2929 17.5764 23.0072C17.2907 22.7214 17.1302 22.3339 17.1302 21.9298C17.1302 21.5257 17.2907 21.1382 17.5764 20.8525C17.8622 20.5668 18.2497 20.4062 18.6538 20.4062C19.0579 20.4062 19.4454 20.5668 19.7311 20.8525C20.0169 21.1382 20.1774 21.5257 20.1774 21.9298ZM10.274 11.2646H16.3684C16.5704 11.2646 16.7642 11.3449 16.9071 11.4878C17.0499 11.6306 17.1302 11.8244 17.1302 12.0264C17.1302 12.2285 17.0499 12.4222 16.9071 12.5651C16.7642 12.708 16.5704 12.7882 16.3684 12.7882H10.274C10.072 12.7882 9.87819 12.708 9.73532 12.5651C9.59246 12.4222 9.5122 12.2285 9.5122 12.0264C9.5122 11.8244 9.59246 11.6306 9.73532 11.4878C9.87819 11.3449 10.072 11.2646 10.274 11.2646Z" fill="#ACB5BD"/>
</g>
<defs>
<clipPath id="clip0_306_210">
<rect width="24.3776" height="24.3776" fill="white" transform="translate(0.370605 0.599609)"/>
</clipPath>
</defs>
</svg>
