<svg width="25" height="25" viewBox="0 0 25 25" fill="none" xmlns="http://www.w3.org/2000/svg">
<g clip-path="url(#clip0_306_1834)">
<path d="M1.30599 2.12305C1.10395 2.12305 0.91018 2.20331 0.767315 2.34617C0.62445 2.48904 0.544189 2.6828 0.544189 2.88485C0.544189 3.08689 0.62445 3.28065 0.767315 3.42352C0.91018 3.56638 1.10395 3.64665 1.30599 3.64665H2.99718L3.60815 6.09507L5.8905 18.261C5.92318 18.4356 6.01582 18.5932 6.15242 18.7067C6.28902 18.8203 6.46098 18.8825 6.63858 18.8826H8.16218C7.35402 18.8826 6.57895 19.2037 6.00749 19.7751C5.43603 20.3466 5.11499 21.1217 5.11499 21.9298C5.11499 22.738 5.43603 23.5131 6.00749 24.0845C6.57895 24.656 7.35402 24.977 8.16218 24.977C8.97035 24.977 9.74542 24.656 10.3169 24.0845C10.8883 23.5131 11.2094 22.738 11.2094 21.9298C11.2094 21.1217 10.8883 20.3466 10.3169 19.7751C9.74542 19.2037 8.97035 18.8826 8.16218 18.8826H18.8274C18.0192 18.8826 17.2441 19.2037 16.6727 19.7751C16.1012 20.3466 15.7802 21.1217 15.7802 21.9298C15.7802 22.738 16.1012 23.5131 16.6727 24.0845C17.2441 24.656 18.0192 24.977 18.8274 24.977C19.6355 24.977 20.4106 24.656 20.9821 24.0845C21.5535 23.5131 21.8746 22.738 21.8746 21.9298C21.8746 21.1217 21.5535 20.3466 20.9821 19.7751C20.4106 19.2037 19.6355 18.8826 18.8274 18.8826H20.351C20.5286 18.8825 20.7005 18.8203 20.8371 18.7067C20.9737 18.5932 21.0664 18.4356 21.0991 18.261L23.3845 6.07221C23.405 5.96227 23.4012 5.84914 23.3731 5.74086C23.345 5.63258 23.2934 5.53181 23.222 5.44572C23.1506 5.35962 23.0611 5.2903 22.9599 5.24269C22.8587 5.19508 22.7482 5.17035 22.6364 5.17024H4.94739L4.33033 2.70049C4.28921 2.53561 4.19414 2.38922 4.06025 2.28459C3.92635 2.17995 3.76132 2.12309 3.59139 2.12305H1.30599ZM9.68578 21.9298C9.68578 22.3339 9.52526 22.7214 9.23953 23.0072C8.9538 23.2929 8.56627 23.4534 8.16218 23.4534C7.7581 23.4534 7.37057 23.2929 7.08484 23.0072C6.79911 22.7214 6.63858 22.3339 6.63858 21.9298C6.63858 21.5257 6.79911 21.1382 7.08484 20.8525C7.37057 20.5668 7.7581 20.4062 8.16218 20.4062C8.56627 20.4062 8.9538 20.5668 9.23953 20.8525C9.52526 21.1382 9.68578 21.5257 9.68578 21.9298ZM20.351 21.9298C20.351 22.3339 20.1905 22.7214 19.9047 23.0072C19.619 23.2929 19.2315 23.4534 18.8274 23.4534C18.4233 23.4534 18.0358 23.2929 17.75 23.0072C17.4643 22.7214 17.3038 22.3339 17.3038 21.9298C17.3038 21.5257 17.4643 21.1382 17.75 20.8525C18.0358 20.5668 18.4233 20.4062 18.8274 20.4062C19.2315 20.4062 19.619 20.5668 19.9047 20.8525C20.1905 21.1382 20.351 21.5257 20.351 21.9298ZM10.4476 11.2646H16.542C16.744 11.2646 16.9378 11.3449 17.0807 11.4878C17.2235 11.6306 17.3038 11.8244 17.3038 12.0264C17.3038 12.2285 17.2235 12.4222 17.0807 12.5651C16.9378 12.708 16.744 12.7882 16.542 12.7882H10.4476C10.2455 12.7882 10.0518 12.708 9.90891 12.5651C9.76604 12.4222 9.68578 12.2285 9.68578 12.0264C9.68578 11.8244 9.76604 11.6306 9.90891 11.4878C10.0518 11.3449 10.2455 11.2646 10.4476 11.2646Z" fill="#ACB5BD"/>
</g>
<defs>
<clipPath id="clip0_306_1834">
<rect width="24.3776" height="24.3776" fill="white" transform="translate(0.544189 0.599609)"/>
</clipPath>
</defs>
</svg>
