<svg width="31" height="30" viewBox="0 0 31 30" fill="none" xmlns="http://www.w3.org/2000/svg">
<path d="M28.2295 14.7951L16.1621 2.73655C16.0752 2.64949 15.972 2.58042 15.8584 2.5333C15.7448 2.48617 15.623 2.46191 15.5 2.46191C15.377 2.46191 15.2552 2.48617 15.1416 2.5333C15.028 2.58042 14.9248 2.64949 14.8379 2.73655L2.77051 14.7951C2.41895 15.1467 2.21973 15.6242 2.21973 16.1223C2.21973 17.1565 3.06055 17.9973 4.09473 17.9973H5.36621V26.6018C5.36621 27.1203 5.78516 27.5393 6.30371 27.5393H13.625V20.9768H16.9062V27.5393H24.6963C25.2148 27.5393 25.6338 27.1203 25.6338 26.6018V17.9973H26.9053C27.4033 17.9973 27.8809 17.801 28.2324 17.4465C28.9619 16.7141 28.9619 15.5276 28.2295 14.7951Z" fill="white"/>
</svg>
