<svg width="31" height="30" viewBox="0 0 31 30" fill="none" xmlns="http://www.w3.org/2000/svg">
<path fill-rule="evenodd" clip-rule="evenodd" d="M9.8751 7.5V8.4375H7.39135C6.19135 8.4375 5.18635 9.3425 5.0601 10.5362L3.48135 25.5363C3.44701 25.8629 3.48172 26.1932 3.58324 26.5056C3.68476 26.818 3.85081 27.1056 4.07062 27.3496C4.29043 27.5937 4.5591 27.7889 4.8592 27.9225C5.15929 28.056 5.48412 28.125 5.8126 28.125H25.1876C25.5161 28.125 25.8409 28.056 26.141 27.9225C26.4411 27.7889 26.7098 27.5937 26.9296 27.3496C27.1494 27.1056 27.3154 26.818 27.417 26.5056C27.5185 26.1932 27.5532 25.8629 27.5188 25.5363L25.9401 10.5362C25.8795 9.96018 25.6078 9.42694 25.1773 9.03939C24.7468 8.65183 24.1881 8.43742 23.6088 8.4375H21.1251V7.5C21.1251 6.00816 20.5325 4.57742 19.4776 3.52252C18.4227 2.46763 16.9919 1.875 15.5001 1.875C14.0083 1.875 12.5775 2.46763 11.5226 3.52252C10.4677 4.57742 9.8751 6.00816 9.8751 7.5ZM15.5001 3.75C14.5055 3.75 13.5517 4.14509 12.8484 4.84835C12.1452 5.55161 11.7501 6.50544 11.7501 7.5V8.4375H19.2501V7.5C19.2501 6.50544 18.855 5.55161 18.1517 4.84835C17.4485 4.14509 16.4947 3.75 15.5001 3.75ZM11.7501 14.0625C11.7501 15.0571 12.1452 16.0109 12.8484 16.7142C13.5517 17.4174 14.5055 17.8125 15.5001 17.8125C16.4947 17.8125 17.4485 17.4174 18.1517 16.7142C18.855 16.0109 19.2501 15.0571 19.2501 14.0625V13.125C19.2501 12.8764 19.3489 12.6379 19.5247 12.4621C19.7005 12.2863 19.939 12.1875 20.1876 12.1875C20.4362 12.1875 20.6747 12.2863 20.8505 12.4621C21.0263 12.6379 21.1251 12.8764 21.1251 13.125V14.0625C21.1251 15.5543 20.5325 16.9851 19.4776 18.04C18.4227 19.0949 16.9919 19.6875 15.5001 19.6875C14.0083 19.6875 12.5775 19.0949 11.5226 18.04C10.4677 16.9851 9.8751 15.5543 9.8751 14.0625V13.125C9.8751 12.8764 9.97387 12.6379 10.1497 12.4621C10.3255 12.2863 10.564 12.1875 10.8126 12.1875C11.0612 12.1875 11.2997 12.2863 11.4755 12.4621C11.6513 12.6379 11.7501 12.8764 11.7501 13.125V14.0625Z" fill="white"/>
</svg>
